<mxfile host="app.diagrams.net" modified="2024-04-20T16:56:38.466Z" agent="Mozilla/5.0 (Macintosh; Intel Mac OS X 10_15_7) AppleWebKit/605.1.15 (KHTML, like Gecko) Version/16.6 Safari/605.1.15" etag="Bb1vrAudNvMKyMDoHgj_" version="24.2.7" type="github">
  <diagram name="Page-1" id="BkiJkhCzS_7WuwakC6Yk">
    <mxGraphModel dx="954" dy="647" grid="1" gridSize="10" guides="1" tooltips="1" connect="1" arrows="1" fold="1" page="1" pageScale="1" pageWidth="827" pageHeight="1169" math="0" shadow="0">
      <root>
        <mxCell id="0" />
        <mxCell id="1" parent="0" />
        <mxCell id="hhmg65lP1O9s4RlYgSlf-3" value="" style="edgeStyle=orthogonalEdgeStyle;rounded=0;orthogonalLoop=1;jettySize=auto;html=1;" edge="1" parent="1" source="hhmg65lP1O9s4RlYgSlf-1" target="hhmg65lP1O9s4RlYgSlf-2">
          <mxGeometry relative="1" as="geometry" />
        </mxCell>
        <mxCell id="hhmg65lP1O9s4RlYgSlf-1" value="" style="rounded=0;whiteSpace=wrap;html=1;" vertex="1" parent="1">
          <mxGeometry x="40" y="80" width="120" height="60" as="geometry" />
        </mxCell>
        <mxCell id="hhmg65lP1O9s4RlYgSlf-5" value="" style="edgeStyle=orthogonalEdgeStyle;rounded=0;orthogonalLoop=1;jettySize=auto;html=1;" edge="1" parent="1" source="hhmg65lP1O9s4RlYgSlf-2" target="hhmg65lP1O9s4RlYgSlf-4">
          <mxGeometry relative="1" as="geometry" />
        </mxCell>
        <mxCell id="hhmg65lP1O9s4RlYgSlf-2" value="" style="whiteSpace=wrap;html=1;rounded=0;" vertex="1" parent="1">
          <mxGeometry x="240" y="80" width="120" height="60" as="geometry" />
        </mxCell>
        <mxCell id="hhmg65lP1O9s4RlYgSlf-4" value="" style="whiteSpace=wrap;html=1;rounded=0;" vertex="1" parent="1">
          <mxGeometry x="440" y="80" width="120" height="60" as="geometry" />
        </mxCell>
      </root>
    </mxGraphModel>
  </diagram>
</mxfile>
